<?xml version="1.0" encoding="UTF-8"?>
<svg id="Layer_1" data-name="Layer 1" xmlns="http://www.w3.org/2000/svg" viewBox="0 0 75.47 91.46">
  <defs>
    <style>
      .cls-1 {
        fill: #e08157;
      }

      .cls-1, .cls-2, .cls-3, .cls-4, .cls-5, .cls-6 {
        stroke-width: 0px;
      }

      .cls-3 {
        fill: #fff;
      }

      .cls-4 {
        fill: silver;
      }

      .cls-5 {
        fill: #917391;
      }

      .cls-6 {
        fill: #37beb7;
      }
    </style>
  </defs>
  <g id="Logo">
    <rect id="BG" class="cls-4" x="2.23" y="13.86" width="72.56" height="77.6"/>
    <polyline id="Aqua" class="cls-6" points="25.57 13.86 38.51 13.86 38.51 77.11 5.19 77.11 5.19 36.04"/>
    <polygon id="Orange" class="cls-1" points="37.59 13.85 69.23 13.85 69.23 87.85 34.94 87.85 34.94 20.81 37.54 22.85 37.59 13.85"/>
    <g id="Purple">
      <rect class="cls-5" x="11.36" y="16.52" width="48.45" height="23.04"/>
      <rect class="cls-5" x="12.43" y="44.18" width="6.9" height="6.9"/>
      <rect class="cls-5" x="23.25" y="45.49" width="6.9" height="6.9"/>
      <rect class="cls-5" x="41.9" y="56.55" width="6.9" height="6.9"/>
      <rect class="cls-5" x="52.41" y="57.11" width="6.9" height="6.9"/>
      <rect class="cls-5" x="51.46" y="67.26" width="6.9" height="6.9"/>
      <rect class="cls-5" x="41.1" y="67.26" width="6.9" height="6.9"/>
      <rect class="cls-5" x="22.7" y="55.63" width="6.9" height="6.9"/>
      <rect class="cls-5" x="12.09" y="55.36" width="6.9" height="6.9"/>
    </g>
    <g id="LogoWhite">
      <path class="cls-3" d="m71.29,89.9h-36.4v-5.46H5.52v-5.88H.98V12.21h25.32v1.72H2.7v62.91h2.82v-39.53L39.64,1.19v11.04h31.65v77.67Zm-34.68-1.72h32.96V13.95h-29.93v9.9l27.25,23.07v37.52h-30.29v3.74Zm0-5.46h28.57v-35.01l-25.53-21.62v52.46h-3.04v4.16Zm-29.36,0h27.64v-4.16H7.24v4.16Zm29.36-5.88h1.32V24.65l-1.32-1.12v53.31Zm-29.36,0h27.64V19.82l3.04,2.57V5.52L7.24,37.99v38.85Z"/>
      <path class="cls-3" d="m61.62,41.66H11.69v-24.81h49.93v24.81Zm-48.21-1.72h46.49v-21.37H13.41v21.37Z"/>
      <g>
        <path class="cls-3" d="m21.05,53.42h-8.62v-8.62h8.62v8.62Zm-6.9-1.72h5.18v-5.18h-5.18v5.18Z"/>
        <path class="cls-3" d="m31.65,53.42h-8.62v-8.62h8.62v8.62Zm-6.9-1.72h5.18v-5.18h-5.18v5.18Z"/>
        <path class="cls-3" d="m21.05,64.31h-8.62v-8.62h8.62v8.62Zm-6.9-1.72h5.18v-5.18h-5.18v5.18Z"/>
        <path class="cls-3" d="m31.65,64.31h-8.62v-8.62h8.62v8.62Zm-6.9-1.72h5.18v-5.18h-5.18v5.18Z"/>
      </g>
      <g>
        <path class="cls-3" d="m50.06,64.88h-8.62v-8.62h8.62v8.62Zm-6.9-1.72h5.18v-5.18h-5.18v5.18Z"/>
        <path class="cls-3" d="m60.66,64.88h-8.62v-8.62h8.62v8.62Zm-6.9-1.72h5.18v-5.18h-5.18v5.18Z"/>
        <path class="cls-3" d="m50.06,75.77h-8.62v-8.62h8.62v8.62Zm-6.9-1.72h5.18v-5.18h-5.18v5.18Z"/>
        <path class="cls-3" d="m60.66,75.77h-8.62v-8.62h8.62v8.62Zm-6.9-1.72h5.18v-5.18h-5.18v5.18Z"/>
      </g>
    </g>
    <g id="LogoBlack">
      <path class="cls-2" d="m70.09,88.71h-36.4v-5.46H4.33v-5.88H-.21V12.19c0-.65.52-1.17,1.17-1.17h24.15v1.72H1.51v62.91h2.82v-39.53L38.45,0v11.04h31.65v77.67Zm-34.68-1.72h32.96V12.76h-29.93v9.9l27.25,23.07v37.52h-30.29v3.74Zm0-5.46h28.57v-35.01l-25.53-21.62v52.46h-3.04v4.16Zm-29.36,0h27.64v-4.16H6.05v4.16Zm29.36-5.88h1.32V23.45l-1.32-1.12v53.31Zm-29.36,0h27.64V18.63l3.04,2.57V4.32L6.05,36.8v38.85Z"/>
      <path class="cls-2" d="m60.42,40.46H10.5V15.66h49.93v24.81Zm-48.21-1.72h46.49v-21.37H12.22v21.37Z"/>
      <g>
        <path class="cls-2" d="m19.86,52.23h-8.62v-8.62h8.62v8.62Zm-6.9-1.72h5.18v-5.18h-5.18v5.18Z"/>
        <path class="cls-2" d="m30.46,52.23h-8.62v-8.62h8.62v8.62Zm-6.9-1.72h5.18v-5.18h-5.18v5.18Z"/>
        <path class="cls-2" d="m19.86,63.12h-8.62v-8.62h8.62v8.62Zm-6.9-1.72h5.18v-5.18h-5.18v5.18Z"/>
        <path class="cls-2" d="m30.46,63.12h-8.62v-8.62h8.62v8.62Zm-6.9-1.72h5.18v-5.18h-5.18v5.18Z"/>
      </g>
      <g>
        <path class="cls-2" d="m48.87,63.68h-8.62v-8.62h8.62v8.62Zm-6.9-1.72h5.18v-5.18h-5.18v5.18Z"/>
        <path class="cls-2" d="m59.47,63.68h-8.62v-8.62h8.62v8.62Zm-6.9-1.72h5.18v-5.18h-5.18v5.18Z"/>
        <path class="cls-2" d="m48.87,74.57h-8.62v-8.62h8.62v8.62Zm-6.9-1.72h5.18v-5.18h-5.18v5.18Z"/>
        <path class="cls-2" d="m59.47,74.57h-8.62v-8.62h8.62v8.62Zm-6.9-1.72h5.18v-5.18h-5.18v5.18Z"/>
      </g>
    </g>
  </g>
</svg>